name Walk9.mot
datacolumns 19
datarows 30
range 2.34400000 2.37300000
endheader

                time	   L_ground_force_vx	   L_ground_force_vy	   L_ground_force_vz	   L_ground_force_px	   L_ground_force_py	   L_ground_force_pz	   R_ground_force_vx	   R_ground_force_vy	   R_ground_force_vz	   R_ground_force_px	   R_ground_force_py	   R_ground_force_pz	   L_ground_torque_x	   L_ground_torque_y	   L_ground_torque_z	   R_ground_torque_x	   R_ground_torque_y	   R_ground_torque_z	
          2.34400000	          0.00000000	         -0.00000000	          0.00000000	          0.00000000	          0.00000000	          0.00000000	         25.39928461	         80.38256166	          1.57988853	          0.40503804	          0.00000000	          0.04521266	          0.00000000	         -0.00000000	          0.00000000	          0.00000000	          0.02963257	          0.00000000	
          2.34500000	          0.00000000	         -0.00000000	          0.00000000	          0.00000000	          0.00000000	          0.00000000	         24.04060035	         75.89478005	          1.47823287	          0.39824590	          0.00000000	          0.04442037	          0.00000000	         -0.00000000	          0.00000000	          0.00000000	          0.03461278	          0.00000000	
          2.34600000	          0.00000000	          0.00000000	          0.00000000	          0.00000000	          0.00000000	          0.00000000	         22.71488031	         71.54037734	          1.37711177	          0.39112842	          0.00000000	          0.04359265	          0.00000000	         -0.00000000	          0.00000000	          0.00000000	          0.03916605	          0.00000000	
          2.34700000	          0.00000000	          0.00000000	          0.00000000	          0.00000000	          0.00000000	          0.00000000	         21.42312088	         67.31952417	          1.27702642	          0.38368735	          0.00000000	          0.04272988	          0.00000000	         -0.00000000	          0.00000000	          0.00000000	          0.04330095	          0.00000000	
          2.34800000	          0.00000000	          0.00000000	          0.00000000	          0.00000000	          0.00000000	          0.00000000	         20.16621987	         63.23223240	          1.17844876	          0.37592600	          0.00000000	          0.04183262	          0.00000000	         -0.00000000	          0.00000000	          0.00000000	          0.04702707	          0.00000000	
          2.34900000	          0.00000000	          0.00000000	          0.00000000	          0.00000000	          0.00000000	          0.00000000	         18.94497697	         59.27836036	          1.08181898	          0.36784929	          0.00000000	          0.04090158	          0.00000000	         -0.00000000	          0.00000000	          0.00000000	          0.05035494	          0.00000000	
          2.35000000	          0.00000000	          0.00000000	          0.00000000	          0.00000000	          0.00000000	          0.00000000	         17.76009465	         55.45761895	          0.98754327	          0.35946393	          0.00000000	          0.03993763	          0.00000000	         -0.00000000	          0.00000000	          0.00000000	          0.05329593	          0.00000000	
          2.35100000	          0.00000000	          0.00000000	          0.00000000	          0.00000000	          0.00000000	          0.00000000	         16.61217930	         51.76957942	          0.89599157	          0.35077852	          0.00000000	          0.03894184	          0.00000000	         -0.00000000	          0.00000000	          0.00000000	          0.05586220	          0.00000000	
          2.35200000	          0.00000000	          0.00000000	         -0.00000000	          0.00000000	          0.00000000	          0.00000000	         15.50174267	         48.21368346	          0.80749526	          0.34180368	          0.00000000	          0.03791543	          0.00000000	         -0.00000000	          0.00000000	          0.00000000	          0.05806652	          0.00000000	
          2.35300000	          0.00000000	          0.00000000	         -0.00000000	          0.00000000	          0.00000000	          0.00000000	         14.42920343	         44.78925569	          0.72234457	          0.33255227	          0.00000000	          0.03685985	          0.00000000	         -0.00000000	          0.00000000	          0.00000000	          0.05992208	          0.00000000	
          2.35400000	          0.00000000	          0.00000000	         -0.00000000	          0.00000000	          0.00000000	          0.00000000	         13.39488889	         41.49551787	          0.64078604	          0.32303947	          0.00000000	          0.03577677	          0.00000000	         -0.00000000	          0.00000000	          0.00000000	          0.06144234	          0.00000000	
          2.35500000	          0.00000000	          0.00000000	         -0.00000000	          0.00000000	          0.00000000	          0.00000000	         12.39903683	         38.33160351	          0.56302005	          0.31328298	          0.00000000	          0.03466814	          0.00000000	         -0.00000000	          0.00000000	          0.00000000	          0.06264084	          0.00000000	
          2.35600000	          0.00000000	          0.00000000	         -0.00000000	          0.00000000	          0.00000000	          0.00000000	         11.44179734	         35.29657063	          0.48919871	          0.30330316	          0.00000000	          0.03353624	          0.00000000	         -0.00000000	          0.00000000	          0.00000000	          0.06353135	          0.00000000	
          2.35700000	          0.00000000	          0.00000000	         -0.00000000	          0.00000000	          0.00000000	          0.00000000	         10.52323457	         32.38941056	          0.41942426	          0.29312320	          0.00000000	          0.03238369	          0.00000000	         -0.00000000	          0.00000000	          0.00000000	          0.06412810	          0.00000000	
          2.35800000	          0.00000000	          0.00000000	         -0.00000000	          0.00000000	          0.00000000	          0.00000000	          9.64332791	         29.60905007	          0.35374855	          0.28276922	          0.00000000	          0.03121348	          0.00000000	         -0.00000000	          0.00000000	          0.00000000	          0.06444626	          0.00000000	
          2.35900000	          0.00000000	          0.00000000	         -0.00000000	          0.00000000	          0.00000000	          0.00000000	          8.80197198	         26.95434411	          0.29217406	          0.27227048	          0.00000000	          0.03002901	          0.00000000	         -0.00000000	          0.00000000	          0.00000000	          0.06450228	          0.00000000	
          2.36000000	          0.00000000	          0.00000000	         -0.00000000	          0.00000000	          0.00000000	          0.00000000	          7.99897553	         24.42405660	          0.23465731	          0.26165959	          0.00000000	          0.02883404	          0.00000000	         -0.00000000	          0.00000000	          0.00000000	          0.06431397	          0.00000000	
          2.36100000	          0.00000000	          0.00000000	         -0.00000000	          0.00000000	          0.00000000	          0.00000000	          7.23405898	         22.01682879	          0.18111488	          0.25097268	          0.00000000	          0.02763268	          0.00000000	         -0.00000000	          0.00000000	          0.00000000	          0.06390027	          0.00000000	
          2.36200000	          0.00000000	          0.00000000	         -0.00000000	          0.00000000	          0.00000000	          0.00000000	          6.50685138	         19.73113488	          0.13143251	          0.24024918	          0.00000000	          0.02642934	          0.00000000	         -0.00000000	          0.00000000	          0.00000000	          0.06328070	          0.00000000	
          2.36300000	          0.00000000	          0.00000000	         -0.00000000	          0.00000000	          0.00000000	          0.00000000	          5.81688722	         17.56522850	          0.08547661	          0.22953006	          0.00000000	          0.02522848	          0.00000000	         -0.00000000	          0.00000000	          0.00000000	          0.06247474	          0.00000000	
          2.36400000	          0.00000000	          0.00000000	         -0.00000000	          0.00000000	          0.00000000	          0.00000000	          5.16360603	         15.51710158	          0.04310508	          0.21885497	          0.00000000	          0.02403438	          0.00000000	         -0.00000000	          0.00000000	          0.00000000	          0.06150124	          0.00000000	
          2.36500000	          0.00000000	          0.00000000	         -0.00000000	          0.00000000	          0.00000000	          0.00000000	          4.54635745	         13.58447942	          0.00417327	          0.20826052	          0.00000000	          0.02285100	          0.00000000	         -0.00000000	          0.00000000	          0.00000000	          0.06037810	          0.00000000	
          2.36600000	          0.00000000	          0.00000000	         -0.00000000	          0.00000000	          0.00000000	          0.00000000	          3.96441029	         11.76484427	         -0.03146417	          0.19777989	          0.00000000	          0.02168188	          0.00000000	         -0.00000000	          0.00000000	          0.00000000	          0.05912231	          0.00000000	
          2.36700000	          0.00000000	          0.00000000	         -0.00000000	         -0.00000000	          0.00000000	          0.00000000	          3.41696212	         10.05546546	         -0.06395267	          0.18744301	          0.00000000	          0.02053023	          0.00000000	         -0.00000000	          0.00000000	          0.00000000	          0.05774988	          0.00000000	
          2.36800000	          0.00000000	          0.00000000	         -0.00000000	         -0.00000000	          0.00000000	         -0.00000000	          2.90314837	          8.45342790	         -0.09343720	          0.17727670	          0.00000000	          0.01939893	          0.00000000	         -0.00000000	          0.00000000	          0.00000000	          0.05627591	          0.00000000	
          2.36900000	          0.00000000	          0.00000000	         -0.00000000	         -0.00000000	          0.00000000	         -0.00000000	          2.42205088	          6.95565870	         -0.12006175	          0.16730489	          0.00000000	          0.01829050	          0.00000000	         -0.00000000	          0.00000000	          0.00000000	          0.05471462	          0.00000000	
          2.37000000	          0.00000000	          0.00000000	         -0.00000000	         -0.00000000	          0.00000000	         -0.00000000	          1.97270594	          5.55895226	         -0.14396889	          0.15754872	          0.00000000	          0.01720721	          0.00000000	         -0.00000000	          0.00000000	          0.00000000	          0.05307931	          0.00000000	
          2.37100000	          0.00000000	          0.00000000	         -0.00000000	         -0.00000000	          0.00000000	         -0.00000000	          1.55411178	          4.25999364	         -0.16529931	          0.14802671	          0.00000000	          0.01615100	          0.00000000	         -0.00000000	          0.00000000	          0.00000000	          0.05138248	          0.00000000	
          2.37200000	          0.00000000	          0.00000000	         -0.00000000	         -0.00000000	          0.00000000	         -0.00000000	          1.16523561	          3.05538036	         -0.18419151	          0.13875495	          0.00000000	          0.01512356	          0.00000000	         -0.00000000	          0.00000000	          0.00000000	          0.04963575	          0.00000000	
          2.37300000	          0.00000000	          0.00000000	         -0.00000000	         -0.00000000	          0.00000000	         -0.00000000	          0.80502016	          1.94164275	         -0.20078140	          0.12974719	          0.00000000	          0.01412633	          0.00000000	         -0.00000000	          0.00000000	          0.00000000	          0.04784998	          0.00000000	
